<svg t="1590296283069" class="icon" viewBox="0 0 1024 1024" version="1.1" xmlns="http://www.w3.org/2000/svg" p-id="19303" width="200" height="200"><path d="M410.711106 115.945709 486.228033 115.945709l0 38.267559-56.18258 0c-15.019065 0-27.191292 12.172227-27.191292 27.187199 0 15.019065 12.172227 27.191292 27.191292 27.191292l166.771281 0c15.014972 0 27.192316-12.172227 27.192316-27.191292 0-15.014972-12.177344-27.187199-27.192316-27.187199l-56.210209 0L540.606525 115.945709l76.346829 0c15.019065 0 27.192316-12.177344 27.192316-27.192316 0-15.019065-12.173251-27.192316-27.192316-27.192316L410.711106 61.561078c-15.020088 0-27.192316 12.173251-27.192316 27.192316C383.51879 103.768365 395.691017 115.945709 410.711106 115.945709L410.711106 115.945709 410.711106 115.945709zM410.711106 115.945709" p-id="19304"></path><path d="M287.502993 390.876362c0 15.013949 12.178367 27.187199 27.192316 27.187199l395.58357 0c15.014972 0 27.187199-12.173251 27.187199-27.187199 0-15.020088-12.172227-27.192316-27.187199-27.192316L314.695309 363.684046C299.68136 363.684046 287.502993 375.856273 287.502993 390.876362L287.502993 390.876362 287.502993 390.876362zM287.502993 390.876362" p-id="19305"></path><path d="M710.273762 511.119957l-395.579477 0c-15.013949 0-27.192316 12.172227-27.192316 27.192316 0 15.014972 12.178367 27.187199 27.192316 27.187199l395.58357 0c15.014972 0 27.187199-12.172227 27.187199-27.187199C737.466078 523.292184 725.293851 511.119957 710.273762 511.119957L710.273762 511.119957 710.273762 511.119957zM710.273762 511.119957" p-id="19306"></path><path d="M710.273762 658.550751l-395.579477 0c-15.013949 0-27.192316 12.172227-27.192316 27.192316 0 15.014972 12.178367 27.192316 27.192316 27.192316l395.58357 0c15.014972 0 27.187199-12.177344 27.187199-27.192316C737.466078 670.722978 725.293851 658.550751 710.273762 658.550751L710.273762 658.550751 710.273762 658.550751zM710.273762 658.550751" p-id="19307"></path><path d="M911.37185 244.817822c-1.055029-15.585977-4.848425-30.132274-11.147898-43.37795-12.548804-28.237111-32.660864-44.64378-50.048883-54.033637-26.605961-14.365172-51.860135-15.019065-54.648644-15.048741l-0.151449 0-48.139393-0.199545-0.116657 0c-14.965853 0-27.124777 12.099572-27.187199 27.079752-0.063445 15.014972 12.059664 27.241434 27.079752 27.304879l47.826262 0.199545c1.338485 0.058328 16.318664 0.908696 31.025621 9.370415 18.143219 10.434653 28.398794 27.881001 31.293727 53.211922 0.204661 2.769067 0.317225 583.761394 0.317225 583.761394 0 39.418778-30.444383 71.493288-67.855434 71.493288L545.905204 904.579143l0 0.508583L235.355309 905.087727c-37.422308 0-67.860551-32.074509-67.860551-71.499427 0 0 0.11154-580.991304 0.316202-583.755254 2.895957-25.342178 13.149485-42.783409 31.29475-53.218062 14.71105-8.460696 29.691229-9.311063 31.024597-9.370415l47.832402-0.199545c15.013949-0.063445 27.137057-12.284791 27.074635-27.299763-0.058328-14.980179-12.222369-27.079752-27.187199-27.079752l-0.11768 0-48.134277 0.199545c-0.054235 0.005117-0.102331 0.005117-0.156566 0.005117-2.787486 0.024559-28.037567 0.678452-54.643528 15.043624-25.50693 13.769608-56.902988 42.612517-61.620429 101.825107-0.11154 1.474584-0.107447 2.929726 0.005117 4.361331-0.044002 1.337461-0.067538 2.674922-0.067538 4.022617L113.115244 833.588299c0 69.409836 54.837956 125.878942 122.240065 125.878942l554.264593-0.503467c67.402109 0 122.259508-55.960523 122.259508-125.375475 0 0-0.005117-17.904789-0.01842-47.415916C911.86099 786.167267 911.523299 246.272963 911.37185 244.817822L911.37185 244.817822 911.37185 244.817822zM911.37185 244.817822" p-id="19308"></path></svg>