<svg t="1590296914927" class="icon" viewBox="0 0 1024 1024" version="1.1" xmlns="http://www.w3.org/2000/svg" p-id="23141" width="200" height="200"><path d="M377.6 409.6m-32 0a32 32 0 1 0 64 0 32 32 0 1 0-64 0Z" p-id="23142"></path><path d="M793.6 652.8h-320c-12.8 0-19.2 12.8-19.2 25.6s12.8 25.6 19.2 25.6h313.6c12.8 0 19.2-12.8 19.2-25.6 6.4-12.8-6.4-25.6-12.8-25.6z" p-id="23143"></path><path d="M377.6 678.4m-32 0a32 32 0 1 0 64 0 32 32 0 1 0-64 0Z" p-id="23144"></path><path d="M377.6 544m-32 0a32 32 0 1 0 64 0 32 32 0 1 0-64 0Z" p-id="23145"></path><path d="M793.6 518.4h-320c-12.8 0-19.2 12.8-19.2 25.6s12.8 25.6 19.2 25.6h313.6c12.8 0 19.2-12.8 19.2-25.6 6.4-12.8-6.4-25.6-12.8-25.6zM793.6 384h-320c-6.4 0-19.2 12.8-19.2 25.6s12.8 25.6 19.2 25.6h313.6c12.8 0 19.2-12.8 19.2-25.6 6.4-12.8-6.4-25.6-12.8-25.6z" p-id="23146"></path><path d="M960 224c-12.8-12.8-25.6-19.2-44.8-19.2H806.4V115.2c0-32-25.6-57.6-57.6-57.6H281.6c-32 0-57.6 25.6-57.6 57.6v697.6c0 32 25.6 57.6 57.6 57.6h640c32 0 57.6-25.6 57.6-57.6V262.4c0-12.8-6.4-32-19.2-38.4z m-32 588.8c0 6.4-6.4 12.8-12.8 12.8h-640c-6.4 0-12.8-6.4-12.8-12.8v-704c0-6.4 6.4-12.8 12.8-12.8h460.8c6.4 0 12.8 6.4 12.8 12.8V192c0 12.8 6.4 32 19.2 44.8 12.8 12.8 32 19.2 44.8 19.2H921.6v556.8z" p-id="23147"></path><path d="M659.2 921.6H108.8c-6.4 0-12.8-6.4-12.8-12.8v-576c0-6.4 6.4-12.8 12.8-12.8h64c12.8 0 19.2-6.4 19.2-19.2s-6.4-25.6-19.2-25.6h-64c-32 0-57.6 25.6-57.6 57.6v582.4c0 32 25.6 57.6 57.6 57.6h550.4c12.8 0 25.6-12.8 25.6-25.6s-12.8-25.6-25.6-25.6z" p-id="23148"></path></svg>